<svg width="24" height="32" viewBox="0 0 24 32" fill="none" xmlns="http://www.w3.org/2000/svg">
<path d="M12.2353 16.0883C12.2113 14.6418 11.285 13.3449 9.93773 12.8836C9.58888 12.7589 9.24003 12.709 8.87915 12.709V14.143C9.80541 14.143 10.5753 14.9411 10.5753 15.9137C10.5753 16.8864 9.81743 17.672 8.87915 17.672V22.398C8.87915 22.398 8.99944 22.3482 9.07162 22.2609C9.24003 22.0489 9.39641 21.8369 9.56482 21.6124C9.85352 21.2508 12.3075 17.9713 12.2353 16.0883Z" fill="#AFAFAF"/>
<path d="M7.1831 15.9137C7.1831 14.9411 7.95298 14.143 8.87923 14.143V12.709C8.51835 12.709 8.1695 12.7713 7.82065 12.8836C6.47337 13.3574 5.54712 14.6543 5.52306 16.0883C5.46291 17.9713 7.91689 21.2383 8.19356 21.6124C8.36197 21.8244 8.51835 22.0489 8.68676 22.2609C8.75894 22.3606 8.81909 22.398 8.87923 22.398V17.672C7.94095 17.672 7.1831 16.8864 7.1831 15.9137Z" fill="#AFAFAF"/>
<path d="M16.7823 12.6344C16.7823 12.1231 16.4335 11.6493 15.9523 11.4872C15.832 11.4497 15.6997 11.4248 15.5674 11.4248V11.9361C15.9042 11.9361 16.1809 12.2229 16.1809 12.572C16.1809 12.9212 15.9042 13.1955 15.5674 13.208V14.9039C15.5674 14.9039 15.6035 14.8914 15.6396 14.854C15.6997 14.7792 15.7599 14.7044 15.82 14.6296C15.9283 14.5049 16.8064 13.3202 16.7823 12.6468V12.6344Z" fill="#AFAFAF"/>
<path d="M14.966 12.572C14.966 12.2229 15.2426 11.9361 15.5795 11.9361V11.4248C15.4471 11.4248 15.3268 11.4497 15.1945 11.4872C14.7133 11.6493 14.3765 12.1231 14.3645 12.6344C14.3404 13.3077 15.2186 14.4799 15.3268 14.6171C15.387 14.6919 15.4471 14.7667 15.5073 14.8415C15.5313 14.8789 15.5554 14.8914 15.5795 14.8914V13.1955C15.2426 13.1955 14.966 12.9087 14.966 12.5596V12.572Z" fill="#AFAFAF"/>
<path d="M20.5326 22.2671C20.5326 21.3089 19.8787 20.4207 18.9769 20.1169C18.7514 20.0467 18.5034 20 18.2554 20V20.9583C18.8867 20.9583 19.4053 21.4958 19.4053 22.1503C19.4053 22.8047 18.8867 23.3189 18.2554 23.3423V26.5209C18.2554 26.5209 18.323 26.4975 18.3907 26.4274C18.5034 26.2872 18.6161 26.147 18.7289 26.0067C18.9318 25.773 20.5777 23.5526 20.5326 22.2905V22.2671Z" fill="#AFAFAF"/>
<path d="M17.1282 22.1503C17.1282 21.4958 17.6468 20.9583 18.2781 20.9583V20C18.0301 20 17.8046 20.0467 17.5566 20.1169C16.6548 20.4207 16.0235 21.3089 16.0009 22.2671C15.9558 23.5292 17.6017 25.7263 17.8047 25.9834C17.9174 26.1236 18.0301 26.2638 18.1429 26.4041C18.1879 26.4742 18.233 26.4975 18.2781 26.4975V23.3189C17.6468 23.3189 17.1282 22.7813 17.1282 22.1269V22.1503Z" fill="#AFAFAF"/>
<path d="M13.318 2.97023L13.739 1.98512L13.2939 1L12.2474 3.29445L12.8729 4.47908L12.3075 5.20233L11.9827 5.61384L11.5377 5.35197H11.5136L11.4294 5.28962C11.3572 5.25221 11.261 5.18986 11.1527 5.12751C10.9242 4.99035 10.6114 4.81577 10.2866 4.64119C9.99791 4.47908 9.7092 4.32944 9.46862 4.20475C9.36035 4.4292 9.24006 4.71601 9.11977 5.00282C9.01151 5.25221 8.91527 5.50161 8.83107 5.7136L9.86558 6.18745L10.5031 6.48673L10.1302 7.09775L8.3499 9.99075L8.28975 10.0905L8.20554 10.1653L4.42835 13.0583L4.01935 13.3701L3.65847 12.996L3.51412 12.8463L2.76831 13.607V14.9288L2.64801 15.0909L1.31276 16.899L1.409 17.4228L1.43305 17.5724L1.38494 17.722L1 18.9566L2.04655 20.0788L3.44195 20.4031L3.77877 20.4779L3.88703 20.8146L5.67939 26.4135L8.71077 28.6456H14.124L14.2803 29.0322L14.8698 30.5286L17.8771 31.1022L18.9477 28.9698L19.1642 28.5459L19.6213 28.6581L22.5685 29.3689L22.7971 26.0394V25.8399L22.9414 25.6903L23.5068 24.992V24.3685L22.4482 22.4107L22.1355 21.8371L22.7008 21.5503L23.2422 20.6026L22.2197 19.6175L22.0392 19.3805L22.1114 19.0813L22.9535 15.3403L20.5476 13.3451L20.1747 13.0334L20.3792 12.5845L20.5356 12.2478L17.432 10.9759L16.8787 10.7514L17.0952 10.1778V10.1529L17.1313 10.078C17.1553 10.0157 17.1914 9.91593 17.2395 9.8037C17.3237 9.56677 17.432 9.2675 17.5523 8.95575C17.6606 8.64401 17.7688 8.34473 17.841 8.1078C17.853 8.07039 17.8651 8.03298 17.8771 7.99557C17.841 7.93323 17.7929 7.85841 17.7568 7.77112C17.6245 7.53419 17.4561 7.22245 17.2877 6.9107C17.1192 6.59895 16.9629 6.28721 16.8305 6.05028C16.7704 5.92558 16.7223 5.82582 16.6742 5.75101C16.6501 5.7136 16.6381 5.67619 16.626 5.63878C16.626 5.62631 16.614 5.60137 16.602 5.57643C16.602 5.57643 16.602 5.53902 16.5779 5.51408C16.5779 5.51408 16.5539 5.42679 16.5539 5.3395C16.5539 5.23974 16.5659 5.12751 16.5779 5.04022C16.5779 4.99035 16.59 4.928 16.602 4.86565L15.387 4.40426L14.6051 4.74095L14.0879 4.96541L13.8353 4.44167L13.3661 2.9827L13.318 2.97023Z" stroke="#4A4E4E" stroke-width="0.8"/>
</svg>
