<svg width="18" height="24" viewBox="0 0 18 24" fill="none" xmlns="http://www.w3.org/2000/svg">
<path d="M2.71136 16.052L2.62228 15.7829L2.34558 15.7212L1.3199 15.4923L0.568417 14.7176L0.84843 13.8535L0.887501 13.7329L0.864424 13.6083L0.798322 13.2514L1.78196 11.9637L1.88462 11.8293V11.6601V10.8765L2.39645 10.3739L2.47219 10.4483L2.77698 10.7476L3.12018 10.4932L5.94264 8.40174L6.01703 8.34661L6.06675 8.26851L7.39811 6.177L7.70932 5.68811L7.18009 5.45192L6.45271 5.12729C6.51189 4.98587 6.58022 4.82406 6.65009 4.6617C6.73131 4.47296 6.81329 4.28658 6.88474 4.13162C7.0495 4.21275 7.24742 4.3156 7.44719 4.42184C7.68388 4.54772 7.91785 4.67551 8.09302 4.77205C8.1805 4.82026 8.25309 4.86055 8.30373 4.88875L8.36232 4.92143L8.37758 4.92997L8.38142 4.93212L8.38235 4.93264L8.38257 4.93276L8.38261 4.93279L8.62726 4.49673L8.38261 4.93279L8.74932 5.13852L9.0149 4.81254L9.44088 4.28966L9.82607 3.81686L9.28693 3.53183L9.01469 3.38789L9.39335 2.92316L10.0422 4.2463L10.2501 4.67007L10.6851 4.487L11.25 4.24929L12.1044 4.55999C12.0995 4.58855 12.0949 4.61659 12.0907 4.64319C12.0822 4.69778 12.068 4.79033 12.068 4.86276C12.068 4.93448 12.0842 4.99051 12.0875 5.00207L12.0878 5.00316C12.0936 5.02354 12.0996 5.04002 12.1031 5.04934C12.1104 5.06864 12.1181 5.08602 12.1234 5.09772C12.1346 5.12253 12.1485 5.15088 12.1627 5.17904C12.1917 5.23671 12.2316 5.31275 12.2775 5.39884C12.3699 5.57196 12.4928 5.79669 12.6167 6.02015C12.7405 6.24371 12.8666 6.46811 12.9655 6.64072C12.9952 6.69261 13.0229 6.74054 13.0476 6.78279C13.0416 6.80165 13.0349 6.82212 13.0277 6.84417C12.9731 7.00967 12.894 7.23019 12.8112 7.45436C12.729 7.67734 12.6448 7.8992 12.5812 8.06564C12.5494 8.14877 12.5227 8.21789 12.5041 8.26615L12.4824 8.32203L12.4768 8.33662L12.4754 8.34029L12.475 8.34119L12.4749 8.3414L12.4749 8.34144L12.9408 8.52289L12.4749 8.34145L12.2946 8.80451L12.7565 8.98768L15.0313 9.88964L14.938 10.088L14.7704 10.4446L15.078 10.6909L16.856 12.115L16.2349 14.7888L16.1794 15.0277L16.3343 15.2178L17.2151 16.2989L16.7146 16.5446L16.2401 16.7776L16.499 17.2384L17.287 18.6407V19.0583L16.8733 19.5457L16.7677 19.6702L16.7558 19.833L16.5851 22.1788L14.438 21.6828L14.0617 21.5958L13.8825 21.9379L13.0951 23.4412L10.9043 23.0353L10.4749 21.9813L10.348 21.6699H10.0118H6.28374L4.04447 20.0794L2.71136 16.052ZM9.51435 1.95395L9.24321 1.74917L9.97988 0.876226L10.1246 1.13678L9.5859 2.00799L9.51435 1.95395Z" stroke="#4A4E4E"/>
</svg>
