<?xml version="1.0" encoding="utf-8"?>
<!-- Generator: Adobe Illustrator 26.3.1, SVG Export Plug-In . SVG Version: 6.00 Build 0)  -->
<svg version="1.1" id="Capa_1" xmlns="http://www.w3.org/2000/svg" xmlns:xlink="http://www.w3.org/1999/xlink" x="0px" y="0px"
	 viewBox="0 0 1080 1080" style="enable-background:new 0 0 1080 1080;" xml:space="preserve">
<style type="text/css">
	.st0{fill:#4A4E4E;}
	.st1{fill:#ABACAC;}
	.st2{fill:#C8C8C8;}
	.st3{fill:#8D8D8D;}
	.st4{fill:#A7A9A9;}
	.st5{fill:#E7E7E7;}
</style>
<g>
	<path class="st0" d="M870.2,958.3c-37.4-8.6-73.5-17-110.3-25.5c-13.2,25.1-26.4,50.2-39.7,75.5c-35.1-6.3-69.7-12.5-104.3-19
		c-2.6-0.5-5.5-3.7-6.7-6.3c-5.9-13.4-11.7-27-16.8-40.8c-2.4-6.4-5.6-8.7-12.6-8.6c-48.8,0.3-97.6,0.3-146.4,0
		c-5.4,0-11.5-2-15.9-5.1c-29-20-57.8-40.3-86.4-61c-4.1-3-7.7-7.9-9.3-12.7c-17.8-52.4-35.3-104.9-52.6-157.5
		c-2-5.9-4.5-9.2-11.1-10c-7.3-0.8-14.3-4-21.5-4.6c-15.8-1.3-27.4-9.1-36.9-21c-1.1-1.4-2.2-3.1-3.7-4.1
		c-19.6-12.6-21.9-28.8-11.4-48.7c5.6-10.5,6.2-21.9,3-33.8c-0.9-3.3,1-8.4,3.2-11.4c11.4-15.6,23.7-30.5,34.9-46.2
		c3.4-4.8,6.5-11.7,5.9-17.2c-2.4-21.5,2.5-38.9,21.4-51.4c5.2-3.5,9.1-9,15.1-15.3c5,6.7,9.6,12.7,14.5,19.1
		c22.8-16.8,43.4-32.1,64.1-47.3c10.8-8,21.1-16.9,32.6-24c20.9-12.9,35.8-30.8,48.1-51.8c12-20.6,25.6-40.3,39.1-61.4
		c-16.7-7.5-32.7-14.6-50.1-22.4c10-22.5,19.9-44.7,30.2-68c27.7,14.6,54.1,28.6,80.5,42.5c0.7-0.3,1.3-0.5,1.7-0.9
		c15.1-16.4,15.8-16.9,4.1-35.8c-6.7-10.9-6.8-19.6-1-30.9c13.4-25.8,25.3-52.3,37.8-78.6c0.3-0.5,0.7-1,1.7-2.2
		C580.3,90,589,107.8,597,126c1.2,2.8-0.5,7.9-2.5,11c-8.4,13.4-8.6,26.5-1.6,40.5c3.6,7.3,5.7,15.5,8.8,24.1
		c9.8-4,19.2-8,28.8-11.7c2.7-1,6.1-1.8,8.6-1c16.2,5.5,32.2,11.5,48.6,17.5c-0.3,2.2-0.2,4.1-0.7,5.8c-3.6,11.3-1.4,21.3,4.6,31.4
		c10.5,17.6,20.1,35.8,30.1,53.7c2.7,4.9,4.6,8.1,1.3,15.2c-7.3,15.4-11,32.6-16.4,49c-2.3,6.9-5.1,13.6-8,21.1
		c38,15,75.5,29.7,114,44.8c-4.1,8.9-8.1,17.4-12.3,26.5c20.4,16.2,40.8,32.4,61.1,48.7c7.6,6.1,18.9,11.1,21.7,19
		c2.8,7.8-2.9,18.7-5.1,28.2c-6.6,28.3-13.1,56.7-20,85c-1.6,6.4-0.8,10.8,4.4,15.2c9.8,8.3,18.9,17.5,28.6,25.9
		c3.7,3.2,4.3,5.7,1.6,10c-6.3,9.8-11.7,20.1-18.2,29.8c-2.5,3.8-6.8,6.5-10.8,10.2c11,19.4,22.2,39.3,33.5,59.3
		c6.8,12,6.3,31.8-3.7,40.7c-16.9,14.9-16.2,34.4-17.5,53.8C874,905.6,872.1,931.5,870.2,958.3z M873.7,811.2
		c0-5.8,1.6-12.2-0.4-17.2c-3.7-9.3-9.6-17.8-14.5-26.6c-9.9-17.5-19.7-35-29.9-53.1c13.7-8.4,31.1-11.2,34.5-30.9
		c-9.4-9.2-19.8-18.7-29.2-29c-2.5-2.7-3.6-8.3-2.8-12c7.8-34.9,16-69.8,24.4-104.5c1.3-5.2,0.7-8-3.7-11.5
		c-22.5-17.5-44.7-35.4-66.9-53.2c-14.5-11.7-14.4-11.8-7.5-29.5c0.3-0.8,0.2-1.8,0.4-3.7c-9.8-3.7-19.7-7.5-29.7-11.2
		c-27-10.7-53.9-21.5-81.5-32.5c1.4-3.8,2.5-6.9,3.7-10c9-23.4,18.3-46.8,26.9-70.4c1.4-3.9,0.8-9.5-1-13.5
		c-3.4-7.5-8.2-14.3-12.4-21.5c-2-3.8-4.2-7.4-5.9-11.3c-6.5-14.5-18.6-26.8-18-44.3c0-1-0.7-2.8-1.4-3c-9.5-3-18-10.9-29.3-5.8
		c-12.7,5.7-25.7,10.7-39.5,16.4c-5.1-10.8-9.9-20.9-14.8-31c-4.6-14.6-8.1-29.7-21-43.8c0.6,6.4-0.1,11.1,1.6,14.7
		c5,11,10.9,21.7,16.5,32.5c-8.3,9.9-16.6,19.7-24.7,29.7c-14.2,17.5-14,17.3-33.1,6.5c-18.3-10.3-36.9-20.1-56.1-30.5
		c-3.5,8.1-6.4,15-9.5,22.2c18.3,8.2,35.7,16.1,53.6,24.2c-27,41.3-53.1,81.3-79.4,121.3c-1.6,2.5-4.3,4.3-6.7,6.1
		c-24.9,18.4-49.8,36.8-74.7,55.1c-19.7,14.5-39.5,28.9-61.1,44.6c-4-5.5-7.8-10.8-11.2-15.5c-9.7,5.4-13.8,11.6-12.6,21.1
		c0.7,5.4-0.3,11.1,0.2,16.5c0.7,7.9-1.9,14-6.8,20.1C239.7,539.5,230,553,220,566.1c-2.4,4.7-7.5,10-6.6,13.9
		c2.8,11.9,0.2,22.5-4.4,32.8c-5.2,11.5-5.2,20.2,5.7,29.1c7.6,6.2,12.5,15.8,23.9,16.2c12.2,2.6,24.4,5.5,36.7,7.7
		c7,1.3,10.8,4.2,13.1,11.5c12.5,38.6,25.7,77,38.7,115.4c5.5,16.9,10.8,33.8,16.6,50.5c1,2.9,3.5,5.8,6.1,7.6
		c25.6,18.3,51.3,36.5,77.3,54.4c3.7,2.5,9,3.6,13.6,3.7c51.8,0.2,103.6,0.3,155.4,0c6.4,0,9.9,1.6,12.2,8
		c5.4,14.6,11.8,28.9,17.7,43.3c1.8,4.5,4.2,7.1,9.7,8c20.8,3.2,41.5,7,62.1,11.4c6.6,1.4,9.8,0.3,12.9-5.9
		c10.5-20.8,21.7-41.2,32.4-61.8c2.5-4.9,4.6-7.4,11.2-5.5c15.3,4.3,30.9,7.4,46.4,10.9c15.3,3.5,30.7,6.9,47.1,10.6
		c1.4-20.4,3.1-39.2,3.9-58c0.8-21.8,1.6-43.3,21.6-57.9C873.6,811.9,873.6,811.5,873.7,811.2z"/>
	<path class="st1" d="M327.2,792.8c-13-38.5-26.1-76.8-38.7-115.4c-2.3-7.2-6.1-10.2-13.1-11.5c-12.3-2.2-24.5-5.1-36.7-7.7
		c-1.5-2.9-3.6-5.7-4.5-8.8c-7.4-27.3-14.6-54.6-14.2-83.2c10-13.2,19.7-26.6,30.1-39.5c5-6.1,7.5-12.2,6.8-20.1
		c-0.5-5.5,0.5-11.1-0.2-16.5c-1.2-9.5,2.9-15.7,12.6-21.1c3.4,4.8,7.2,10,11.2,15.5c21.6-15.8,41.4-30.1,61.1-44.6
		c24.9-18.3,49.8-36.7,74.7-55.1c2.4-1.8,5.1-3.7,6.7-6.1c26.3-39.9,52.4-80,79.4-121.3c-18-8.1-35.3-15.9-53.6-24.2
		c3.1-7.2,6.1-14.1,9.5-22.2c19.2,10.4,37.8,20.2,56.1,30.5c19.2,10.8,19,11,33.1-6.5c8.1-10,16.5-19.8,24.7-29.7
		c1-1.1,2-2.3,2.9-3.4c4.8,10.1,9.6,20.2,14.8,31c13.8-5.7,26.8-10.8,39.5-16.4c11.3-5,19.8,2.9,29.3,5.8c0.7,0.2,1.4,2,1.4,3
		c-0.7,17.5,11.4,29.8,18,44.3c1.7,3.9,3.9,7.6,5.9,11.3c-2.4,0.3-4.9,0.4-7.2,0.9c-64,14-117.9,45.7-164,92
		c-24.9,25-55.2,41.2-89.1,50.8c-17.6,5-35.4,9.3-52.9,14.7c-5.3,1.6-10.3,5.2-14.8,8.8c-15,11.9-15.9,29.6-17.9,46.5
		c-2.8,25,8.6,45.3,23.1,63.9c11.2,14.3,15.7,29.9,15.5,47.6c-0.2,22.9-0.2,45.7,0.1,68.6c0.1,5.1,1.4,10.3,2.8,15.2
		c6.4,21.5,25.2,27,40.3,10.3c18-19.9,33.7-41.8,50.9-62.4c15-18,32.3-33.7,54.7-42.1c35.4-13.3,68.2-4.2,98.7,14.9
		c33.5,20.8,65.7,43.6,99.6,63.8c16.6,9.9,35.3,16.7,53.5,23.6c10.1,3.8,19.6-0.6,22.6-8.7c4.3-11.7,7.3-24.4,1.7-35.8
		c-9.8-19.9-20.8-39.4-32.7-58.2c-17.3-27.4-36.1-54-46.2-85.3c-6-18.8-4.9-36.8,6.3-53.5c6.3-9.4,12.9-18.6,19.3-27.8
		c9.9,3.8,19.9,7.5,29.7,11.2c-0.2,1.9-0.1,2.9-0.4,3.7c-6.9,17.7-7,17.8,7.5,29.5c22.2,17.9,44.4,35.8,66.9,53.2
		c4.5,3.5,5,6.3,3.7,11.5c-8.5,34.8-16.7,69.6-24.4,104.5c-0.8,3.7,0.4,9.3,2.8,12c9.5,10.3,19.9,19.9,29.2,29
		c-3.4,19.6-20.8,22.5-34.5,30.9c10.2,18,20,35.5,29.9,53.1c5,8.8,10.8,17.3,14.5,26.6c2,5,0.4,11.4,0.4,17.2c-2-0.5-4.3-0.6-6-1.6
		c-10.4-6.4-21-12.5-30.9-19.6c-12.6-9.1-24.4-19.4-37-28.5c-24-17.3-51.6-26.4-79.7-34.3c-26.8-7.5-53.9-13.4-81.9-13.5
		c-15.5-0.1-31-0.7-46.5,0.3c-8.9,0.6-18.5,2.2-26.4,6.1c-54.7,27.6-114.1,41.9-171.7,60.8C372.4,787.8,349.3,789,327.2,792.8z"/>
	<path class="st2" d="M748.4,428.8c-6.4,9.3-13,18.5-19.3,27.8c-11.2,16.7-12.3,34.7-6.3,53.5c10.1,31.3,28.8,57.8,46.2,85.3
		c11.9,18.8,22.8,38.3,32.7,58.2c5.6,11.4,2.6,24.1-1.7,35.8c-3,8.1-12.4,12.5-22.6,8.7c-18.2-6.9-36.9-13.6-53.5-23.6
		c-33.8-20.2-66.1-43-99.6-63.8c-30.5-19-63.3-28.1-98.7-14.9c-22.3,8.4-39.6,24-54.7,42.1c-17.2,20.6-32.9,42.5-50.9,62.4
		c-15.1,16.7-33.9,11.2-40.3-10.3c-1.5-4.9-2.8-10.1-2.8-15.2c-0.3-22.9-0.3-45.7-0.1-68.6c0.2-17.7-4.4-33.3-15.5-47.6
		c-14.5-18.6-26-38.9-23.1-63.9c1.9-16.9,2.9-34.6,17.9-46.5c4.5-3.5,9.4-7.1,14.8-8.8c17.5-5.4,35.3-9.8,52.9-14.7
		c33.9-9.5,64.2-25.8,89.1-50.8c46.1-46.3,100-78,164-92c2.4-0.5,4.8-0.6,7.2-0.9c4.2,7.1,9,14,12.4,21.5c1.8,3.9,2.4,9.5,1,13.5
		c-8.6,23.6-17.9,46.9-26.9,70.4c-1.2,3.1-2.3,6.2-3.7,10C694.5,407.3,721.5,418,748.4,428.8z M495.3,484.6c1.6,7.4,2.6,15,5,22.1
		c3.7,10.7,9.2,12.5,19.7,10.1c5.3-1.2,11.8-1.5,16.7,0.4c13.7,5.6,24.3,4.4,33.4-8.6c12.9-18.5,25.5-37.5,23.5-61
		c-1.7-20.2-8.1-29.4-23.3-26.6c-14,2.6-27.8,5.7-41.7,8.8c-2.3,0.5-4.4,2.1-6.5,3.4C503.1,444.9,495.9,462.7,495.3,484.6z"/>
	<path class="st3" d="M327.2,792.8c22.2-3.8,45.3-4.9,66.4-11.9c57.7-18.9,117.1-33.2,171.7-60.8c7.9-4,17.5-5.6,26.4-6.1
		c15.4-1,31-0.4,46.5-0.3c28,0.2,55.1,6,81.9,13.5c28.1,7.9,55.7,17,79.7,34.3c12.6,9.1,24.4,19.4,37,28.5
		c9.9,7.1,20.5,13.2,30.9,19.6c1.7,1,4,1.1,6,1.6c-0.1,0.3-0.1,0.7-0.3,0.8c-20,14.5-20.8,36.1-21.6,57.9c-0.7,18.9-2.5,37.7-3.9,58
		c-16.4-3.7-31.8-7.1-47.1-10.6c-15.5-3.5-31.1-6.6-46.4-10.9c-6.5-1.8-8.6,0.6-11.2,5.5c-10.7,20.7-21.9,41.1-32.4,61.8
		c-3.1,6.2-6.3,7.3-12.9,5.9c-20.6-4.4-41.3-8.2-62.1-11.4c-5.6-0.9-7.9-3.5-9.7-8c-5.9-14.4-12.3-28.7-17.7-43.3
		c-2.4-6.4-5.8-8-12.2-8c-51.8,0.2-103.6,0.2-155.4,0c-4.6,0-9.9-1.1-13.6-3.7c-26-17.8-51.7-36-77.3-54.4c-2.6-1.8-5.1-4.7-6.1-7.6
		C338,826.5,332.6,809.6,327.2,792.8z M564.9,871.7c12.8,1.7,25,0.5,35.3-8.7c3.4-3.1,7.2-5.7,10.5-8.9c11.6-11.2,21.3-23.6,25-39.8
		c2.6-11.2-1.7-18.4-12.5-22.8c-3.8-1.5-7.7-4.1-10-7.3c-4.9-6.9-9.5-14.3-13-22.1c-3-6.9-7.4-8.5-14.3-8.2
		c-25.4,1.2-48.6,9.3-69.5,23.4c-13.4,9-24,20.7-28.1,37.2c-3.7,14.8-1.2,22.3,12.1,29.9c9.3,5.3,20.4,8.4,27.8,15.5
		C539,870.5,550.7,873.7,564.9,871.7z"/>
	<path class="st3" d="M220,566.1c-0.4,28.6,6.8,55.9,14.2,83.2c0.8,3.1,2.9,5.9,4.5,8.8c-11.5-0.4-16.3-10-23.9-16.2
		c-10.9-8.9-10.9-17.6-5.7-29.1c4.6-10.3,7.2-20.9,4.4-32.8C212.5,576.1,217.7,570.8,220,566.1z"/>
	<path class="st4" d="M575.2,201.9c-1,1.1-2,2.3-2.9,3.4c-5.6-10.8-11.5-21.4-16.5-32.5c-1.7-3.7-1-8.4-1.6-14.7
		C567.1,172.2,570.6,187.3,575.2,201.9z"/>
	<path class="st5" d="M495.3,484.6c0.6-21.9,7.9-39.6,26.9-51.4c2.1-1.3,4.2-2.9,6.5-3.4c13.9-3.1,27.7-6.2,41.7-8.8
		c15.2-2.8,21.6,6.4,23.3,26.6c2,23.5-10.6,42.5-23.5,61c-9.1,13-19.7,14.2-33.4,8.6c-4.9-2-11.4-1.7-16.7-0.4
		c-10.6,2.5-16.1,0.6-19.7-10.1C497.9,499.6,496.9,492,495.3,484.6z"/>
	<path class="st1" d="M564.9,871.7c-14.1,1.9-25.9-1.3-36.8-11.7c-7.4-7.1-18.6-10.2-27.8-15.5c-13.3-7.6-15.8-15-12.1-29.9
		c4.1-16.5,14.7-28.2,28.1-37.2c20.9-14,44-22.2,69.5-23.4c7-0.3,11.3,1.3,14.3,8.2c3.4,7.8,8,15.1,13,22.1c2.3,3.2,6.3,5.8,10,7.3
		c10.8,4.3,15.1,11.5,12.5,22.8c-3.7,16.2-13.4,28.6-25,39.8c-3.3,3.2-7.1,5.8-10.5,8.9C589.9,872.2,577.7,873.4,564.9,871.7z"/>
</g>
</svg>
