<svg width="19" height="19" viewBox="0 0 19 19" fill="none" xmlns="http://www.w3.org/2000/svg">
<path d="M1.38965 0.389893V17.8499H18.8496" stroke="#211915" stroke-width="1.2"/>
<circle cx="8.36941" cy="11.0645" r="0.94" transform="rotate(-67.32 8.36941 11.0645)" fill="#211915"/>
<circle cx="5.15933" cy="13.9292" r="0.94" transform="rotate(-82 5.15933 13.9292)" fill="#211915"/>
<circle cx="10.3029" cy="8.81814" r="0.94" transform="rotate(-82 10.3029 8.81814)" fill="#211915"/>
<circle cx="8.64521" cy="5.44661" r="0.939859" transform="rotate(-81.9509 8.64521 5.44661)" fill="#211915"/>
<circle cx="16.7033" cy="3.72048" r="0.94" transform="rotate(-82 16.7033 3.72048)" fill="#211915"/>
<circle cx="9.54703" cy="14.1284" r="0.94" transform="rotate(-82 9.54703 14.1284)" fill="#211915"/>
<circle cx="13.0421" cy="7.00148" r="0.94" transform="rotate(-82 13.0421 7.00148)" fill="#211915"/>
<circle cx="13.1789" cy="4.16896" r="0.94" transform="rotate(-82 13.1789 4.16896)" fill="#211915"/>
<circle cx="16.3117" cy="6.50515" r="0.94" transform="rotate(-82 16.3117 6.50515)" fill="#211915"/>
<circle cx="5.00699" cy="9.66335" r="0.94" transform="rotate(-82 5.00699 9.66335)" fill="#211915"/>
<circle cx="12.5236" cy="10.7141" r="0.94" transform="rotate(-82 12.5236 10.7141)" fill="#211915"/>
</svg>
