<svg width="24" height="21" viewBox="0 0 24 21" fill="none" xmlns="http://www.w3.org/2000/svg">
<g opacity="0.839495">
<mask id="mask0_1387_13964" style="mask-type:alpha" maskUnits="userSpaceOnUse" x="0" y="0" width="24" height="21">
<path fill-rule="evenodd" clip-rule="evenodd" d="M0 0H24V21H0V0Z" fill="white"/>
</mask>
<g mask="url(#mask0_1387_13964)">
<path fill-rule="evenodd" clip-rule="evenodd" d="M23.1027 0H0.896202C0.402407 0 0 0.394183 0 0.877517V20.1206C0 20.4183 0.152689 20.6802 0.384731 20.8401V20.9783H0.705152C0.76683 20.9912 0.831516 21 0.896202 21H23.1027C23.1685 21 23.2317 20.9912 23.2937 20.9783H23.3377V20.9654C23.7179 20.863 24 20.5248 24 20.1221V0.878991C24 0.394183 23.5976 0 23.1027 0ZM3.54494 20.2256H0.830011C0.793155 20.2039 0.768334 20.1652 0.768334 20.1206V17.841H3.54494V20.2256ZM0.768334 17.0884H3.54494V14.6161H0.768334V17.0884ZM0.768334 13.8634H3.54494V11.253H0.768334V13.8634ZM0.768334 10.4993H3.54494V7.67588H0.768334V10.4993ZM0.768334 6.92325H3.54494V4.16139H0.768334V6.92325ZM4.31328 20.2256H10.0132V17.841H4.31328V20.2256ZM4.31328 17.0884H10.0132V14.6161H4.31328V17.0884ZM4.31328 13.8634H10.0132V11.253H4.31328V13.8634ZM4.31328 10.4993H10.0132V7.67588H4.31328V10.4993ZM4.31328 6.92325H10.0132V4.16139H4.31328V6.92325ZM4.31328 3.40913H10.0132V0.752631H4.31328V3.40913ZM10.783 20.2256H16.5476V17.841H10.783V20.2256ZM10.783 17.0884H16.5476V14.6161H10.783V17.0884ZM10.783 13.8634H16.5476V11.253H10.783V13.8634ZM10.783 10.4993H16.5476V7.67588H10.783V10.4993ZM10.783 6.92325H16.5476V4.16139H10.783V6.92325ZM10.783 3.40913H16.5476V0.752631H10.783V3.40913ZM23.2305 20.1206C23.2305 20.1652 23.2053 20.2024 23.1685 20.2256H17.3159V17.841H23.2305V20.1206ZM17.3159 17.0884H23.2305V14.6161H17.3159V17.0884ZM17.3159 13.8634H23.2305V11.253H17.3159V13.8634ZM17.3159 10.4993H23.2305V7.67588H17.3159V10.4993ZM17.3159 6.92325H23.2305V4.16139H17.3159V6.92325ZM23.2305 3.40913H17.3159V0.752631H23.1027C23.173 0.752631 23.2305 0.808627 23.2305 0.877517V3.40913ZM11.3471 6.22662H15.9613V4.65504H11.3471V6.22662ZM11.3471 9.77831H15.9613V8.20527H11.3471V9.77831ZM11.3471 13.2162H15.9613V11.6446H11.3471V13.2162ZM11.3471 16.6194H15.9613V15.0478H11.3471V16.6194ZM11.3471 19.7637H15.9613V18.1921H11.3471V19.7637Z" fill="#4A4E4E"/>
</g>
</g>
</svg>
